<?xml version="1.0" encoding="UTF-8" standalone="no"?>
<!-- Created with Inkscape (http://www.inkscape.org/) -->

<svg
   width="42.441456mm"
   height="34.941315mm"
   viewBox="0 0 42.441456 34.941315"
   version="1.1"
   id="svg1"
   xml:space="preserve"
   xmlns:inkscape="http://www.inkscape.org/namespaces/inkscape"
   xmlns:sodipodi="http://sodipodi.sourceforge.net/DTD/sodipodi-0.dtd"
   xmlns="http://www.w3.org/2000/svg"
   xmlns:svg="http://www.w3.org/2000/svg"><sodipodi:namedview
     id="namedview1"
     pagecolor="#ffffff"
     bordercolor="#000000"
     borderopacity="0.25"
     inkscape:showpageshadow="2"
     inkscape:pageopacity="0.0"
     inkscape:pagecheckerboard="0"
     inkscape:deskcolor="#d1d1d1"
     inkscape:document-units="mm"><inkscape:page
       x="0"
       y="0"
       width="42.441456"
       height="34.941315"
       id="page2"
       margin="0"
       bleed="0" /></sodipodi:namedview><defs
     id="defs1" /><g
     inkscape:label="Calque 1"
     inkscape:groupmode="layer"
     id="layer1"
     transform="translate(-16.400176,-21.985353)"><path
       style="fill:#000000;stroke-width:0.184487"
       d="m 28.370549,54.186913 -9.896696,-2.762649 v -3.651268 -3.651264 h 0.406991 0.40699 l 0.03232,1.765226 c 0.01778,0.970875 0.03232,2.470825 0.03232,3.333229 v 1.568 l 9.489414,2.641888 9.489414,2.641889 9.44976,-2.716299 9.44976,-2.716299 v -3.258819 -3.258815 h 0.412 0.412 l 0.0151,3.551096 c 0.008,1.953101 0.004,3.566058 -0.009,3.584352 -0.0234,0.03182 -19.41923,5.621775 -19.67136,5.669357 -0.073,0.01377 -4.09517,-1.08607 -10.01873,-2.739624 z m 1.049834,-1.493432 c -4.838926,-1.349261 -8.807682,-2.462833 -8.819456,-2.474609 -0.01177,-0.01175 -0.0373,-1.388446 -0.05673,-3.059272 l -0.03532,-3.037868 h 0.129575 0.129576 v 2.972258 2.972262 l 0.109828,0.02763 c 0.06041,0.0152 4.011485,1.114073 8.780177,2.441963 l 8.670349,2.414349 8.66536,-2.283148 c 4.76595,-1.255733 8.70397,-2.297965 8.75116,-2.316071 0.0811,-0.03114 0.0839,-0.202032 0.0511,-3.131077 l -0.0347,-3.098154 h 0.12459 0.12459 v 3.195324 3.195324 l -0.18304,0.04847 c -6.45124,1.707986 -17.46273,4.591571 -17.52448,4.58915 -0.0465,-0.0019 -4.04368,-1.107257 -8.882613,-2.456514 z m 7.234959,-0.859387 0.001,-0.488111 0.18242,-1.5e-5 0.18243,-1.5e-5 -0.031,0.366093 c -0.022,0.260743 -0.0148,0.366096 0.025,0.366096 0.0308,0 0.056,-0.05491 0.056,-0.122034 0,-0.09763 0.0244,-0.122029 0.12203,-0.122029 0.1139,0 0.12203,0.01628 0.12203,0.244063 v 0.244059 h -0.33057 -0.33058 z m 0.92853,0.02441 v -0.463686 h 0.17084 0.17085 v 0.463686 0.463685 h -0.17085 -0.17084 z m 0.83091,0.08539 c 0.01,-0.208063 0.007,-0.328872 -0.007,-0.268469 -0.0178,0.07773 -0.0606,0.10983 -0.14659,0.10983 -0.11268,0 -0.12036,-0.01497 -0.10643,-0.207453 l 0.015,-0.207453 0.4027,-0.01419 0.4027,-0.01419 v 0.221632 c 0,0.186427 -0.015,0.221629 -0.0942,0.221629 -0.0577,0 -0.10397,-0.04254 -0.11937,-0.10983 -0.0138,-0.0604 -0.017,0.06041 -0.007,0.26847 l 0.018,0.378295 h -0.18773 -0.18772 z m -2.72158,-0.146436 c 0.0131,-0.261757 0.0265,-0.478071 0.0298,-0.480698 0.003,-0.0026 0.15426,0.0054 0.33547,0.01789 0.32536,0.02238 0.32949,0.02444 0.32949,0.163416 0,0.116684 -0.0204,0.14075 -0.11915,0.14075 -0.0655,0 -0.13273,-0.02197 -0.14932,-0.04881 -0.0456,-0.07377 -0.12203,-0.05848 -0.12203,0.02441 0,0.04068 0.0434,0.07322 0.0976,0.07322 0.0651,0 0.0976,0.03253 0.0976,0.09763 0,0.06508 -0.0325,0.09762 -0.0976,0.09762 -0.0651,0 -0.0976,0.03253 -0.0976,0.09762 0,0.0537 0.022,0.09763 0.0488,0.09763 0.0268,0 0.0488,-0.03294 0.0488,-0.07322 0,-0.04881 0.0488,-0.07322 0.14644,-0.07322 0.13482,0 0.14644,0.01355 0.14644,0.170843 v 0.170842 h -0.35929 -0.35929 z m 3.54615,0.01217 -0.004,-0.463692 h 0.25642 c 0.14103,0 0.29116,-0.01333 0.33362,-0.02961 0.0616,-0.02366 0.0772,0.006 0.0772,0.14644 0,0.151175 -0.0159,0.176064 -0.11227,0.176064 -0.0617,0 -0.13862,-0.02635 -0.17084,-0.05858 -0.0456,-0.04556 -0.0586,-0.04014 -0.0586,0.02441 0,0.05044 0.0383,0.08298 0.0976,0.08298 0.0651,0 0.0976,0.03253 0.0976,0.09763 0,0.06508 -0.0325,0.09762 -0.0976,0.09762 -0.0651,0 -0.0976,0.03253 -0.0976,0.09763 0,0.05369 0.022,0.09763 0.0488,0.09763 0.0268,0 0.0488,-0.03294 0.0488,-0.07322 0,-0.04881 0.0488,-0.07322 0.14644,-0.07322 0.13481,0 0.14643,0.01355 0.14643,0.170842 v 0.170824 l -0.35388,-2.2e-5 -0.35389,-2.3e-5 z m 1.48041,-0.0651 c -0.014,-0.259493 -0.0224,-0.474391 -0.0187,-0.477551 0.004,-0.003 0.15501,-0.01711 0.33623,-0.031 l 0.32948,-0.02523 v 0.16522 c 0,0.143696 -0.0159,0.165224 -0.12203,0.165224 -0.0671,0 -0.12203,-0.02197 -0.12203,-0.04881 0,-0.02684 -0.022,-0.04881 -0.0488,-0.04881 -0.0268,0 -0.0488,0.04187 -0.0488,0.09306 0,0.06902 0.0252,0.08646 0.0976,0.06752 0.0736,-0.01924 0.0976,-0.0015 0.0976,0.0721 0,0.05628 -0.041,0.10834 -0.0968,0.122928 -0.0859,0.02246 -0.0907,0.04255 -0.0432,0.179026 0.0632,0.181174 0.0669,0.176188 -0.15872,0.210937 l -0.17661,0.02721 z m -6.44292,0.379707 c -0.0674,-0.04018 -0.0854,-0.118013 -0.0854,-0.368035 0,-0.271562 0.0172,-0.33427 0.11982,-0.436883 0.13857,-0.138575 0.20998,-0.146489 0.44309,-0.04909 0.13044,0.0545 0.16928,0.0993 0.16928,0.19525 0,0.105817 -0.022,0.124522 -0.14644,0.124522 -0.0976,0 -0.14643,-0.02441 -0.14643,-0.07322 0,-0.09666 -0.0792,-0.09395 -0.11681,0.004 -0.048,0.125051 -0.0339,0.459725 0.0194,0.459725 0.0269,0 0.0434,-0.07139 0.0366,-0.15864 -0.0115,-0.146477 -10e-4,-0.158639 0.13404,-0.158639 0.14319,0 0.14644,0.0054 0.14644,0.244059 v 0.244063 l -0.24406,0.0119 c -0.13424,0.0066 -0.2825,-0.01101 -0.32949,-0.03904 z m -0.62889,-0.02984 c -0.0439,-0.01168 -0.11241,-0.102478 -0.15233,-0.201789 l -0.0726,-0.180561 10e-4,0.159329 c 10e-4,0.199487 -0.0192,0.219521 -0.18329,0.178322 -0.11321,-0.02841 -0.12787,-0.05161 -0.10182,-0.161017 0.0167,-0.0703 0.0437,-0.276087 0.0598,-0.457302 0.027,-0.302486 0.0386,-0.329483 0.14139,-0.329483 0.1354,0 0.26539,0.11984 0.26539,0.244666 0,0.05019 0.0234,0.105697 0.0519,0.123347 0.0353,0.02179 0.0411,-0.02542 0.0183,-0.147103 l -0.0336,-0.179194 0.16474,0.01576 c 0.17627,0.01684 0.17539,0.01393 0.11564,0.38184 -0.0153,0.09397 -0.0393,0.264198 -0.0533,0.378296 -0.0249,0.202137 -0.0487,0.22088 -0.22138,0.174897 z m 8.01175,-0.276038 c 0,-0.176754 -0.0255,-0.377412 -0.0567,-0.445905 -0.0687,-0.150834 -0.0534,-0.169124 0.17272,-0.205816 l 0.17689,-0.02871 v 0.32137 c 0,0.176754 0.0255,0.377409 0.0567,0.445905 0.0687,0.15083 0.0534,0.16912 -0.17272,0.205813 l -0.17689,0.02871 z m 0.82638,-0.0697 c -0.002,-0.154368 -0.0241,-0.3246 -0.0495,-0.378295 -0.0395,-0.08365 -0.0434,-0.0784 -0.0277,0.03661 0.0153,0.112121 1.8e-4,0.134233 -0.0916,0.134233 -0.0903,0 -0.11409,-0.03264 -0.13329,-0.183046 -0.0128,-0.100674 -0.01,-0.197563 0.007,-0.215307 0.0166,-0.01774 0.19726,-0.04748 0.40141,-0.06609 l 0.37118,-0.03384 0.0315,0.157607 c 0.0443,0.22167 0.0426,0.228752 -0.0638,0.256561 -0.07,0.0183 -0.10851,-0.0094 -0.14505,-0.104136 -0.0407,-0.105589 -0.045,-0.08468 -0.0234,0.115007 0.0145,0.134237 0.0513,0.294912 0.0818,0.357067 0.066,0.134558 -0.008,0.202343 -0.22075,0.20353 -0.13056,7.48e-4 -0.13432,-0.0069 -0.13766,-0.279924 z m -10.0031,0.143996 c 0,-0.04832 0.0207,-0.108729 0.0459,-0.134233 0.0253,-0.02549 0.0569,-0.200131 0.0703,-0.388058 0.0134,-0.187928 0.0257,-0.342767 0.0273,-0.344085 0.002,-0.0011 0.0818,0.0068 0.17831,0.01808 0.16144,0.01887 0.17298,0.0307 0.14487,0.14884 -0.0168,0.0706 -0.0438,0.276629 -0.0599,0.457845 l -0.0294,0.329482 h -0.18869 c -0.14916,0 -0.18869,-0.01842 -0.18869,-0.08786 z m 10.83634,-0.169967 c 0,-0.114958 -0.0295,-0.322651 -0.0655,-0.461533 l -0.0655,-0.252515 0.14811,-0.03253 c 0.15084,-0.03313 0.18944,-0.0059 0.35998,0.254234 0.0504,0.07689 0.0523,0.06963 0.0122,-0.0462 -0.0787,-0.227252 -0.0608,-0.277491 0.0988,-0.277491 0.0805,0 0.14813,0.01647 0.15019,0.03661 0.002,0.02014 0.009,0.102508 0.0155,0.183046 0.006,0.08054 0.0289,0.269925 0.0499,0.420857 l 0.0381,0.274422 -0.15128,0.0222 c -0.0832,0.0122 -0.15177,0.0095 -0.15236,-0.006 -3.8e-4,-0.0155 -0.0444,-0.08307 -0.0973,-0.150183 l -0.0962,-0.122034 0.0287,0.151715 c 0.0246,0.129774 0.0122,0.156146 -0.0858,0.182379 -0.18187,0.04869 -0.18777,0.04313 -0.18777,-0.177019 z m -11.666289,0.07228 c -0.110455,-0.08944 -0.112497,-0.103795 -0.05993,-0.42104 0.07049,-0.425421 0.120633,-0.484154 0.387608,-0.454061 0.251211,0.0283 0.355841,0.10512 0.355841,0.261226 0,0.09536 -0.0251,0.116051 -0.14075,0.116051 -0.10426,0 -0.14874,-0.02845 -0.17162,-0.109826 -0.0253,-0.08992 -0.03869,-0.09656 -0.07395,-0.03661 -0.06358,0.108082 -0.0855,0.463719 -0.02859,0.463719 0.02685,0 0.04192,-0.06041 0.03349,-0.134233 -0.01282,-0.112346 0.0031,-0.134113 0.09762,-0.133488 0.21053,0.0015 0.25526,0.06643 0.20625,0.299872 -0.044,0.209572 -0.0469,0.212069 -0.268051,0.226451 -0.162769,0.01059 -0.254664,-0.01063 -0.337919,-0.07806 z m -0.548995,-0.04955 c -0.121069,-0.01393 -0.134234,-0.03429 -0.134234,-0.207453 0,-0.105604 -0.02197,-0.192008 -0.04881,-0.192008 -0.02685,0 -0.04881,0.07933 -0.04881,0.176275 v 0.176278 l -0.183046,-0.03418 c -0.100676,-0.01879 -0.187565,-0.03858 -0.193088,-0.04395 -0.0055,-0.0054 0.0217,-0.101898 0.0605,-0.214513 0.0388,-0.112615 0.07627,-0.309451 0.08326,-0.437406 l 0.01272,-0.23265 0.219655,0.01621 c 0.306499,0.02261 0.460737,0.105402 0.478388,0.256809 0.0081,0.06922 -0.0164,0.151635 -0.05438,0.183154 -0.04972,0.04126 -0.05956,0.109198 -0.03515,0.242697 0.04597,0.251388 0.0065,0.329568 -0.157009,0.310758 z m -0.06101,-0.684199 c 0,-0.08828 -0.09554,-0.07216 -0.11449,0.01932 -0.01054,0.0509 0.0078,0.07321 0.04881,0.05953 0.03612,-0.01205 0.06568,-0.04752 0.06568,-0.07884 z m 13.261334,0.336984 c -0.0314,-0.203241 -0.0627,-0.411967 -0.0696,-0.463838 -0.0105,-0.0799 0.0361,-0.103302 0.30484,-0.153145 0.1745,-0.03234 0.33375,-0.04903 0.35388,-0.03702 0.0201,0.01198 0.0366,0.0892 0.0366,0.171587 0,0.147241 -0.003,0.149266 -0.19385,0.118796 -0.16185,-0.02587 -0.1891,-0.01861 -0.16506,0.04403 0.0182,0.04744 0.0626,0.06431 0.12063,0.04588 0.0697,-0.02212 0.0918,-0.0048 0.0918,0.07176 0,0.05716 -0.0317,0.10091 -0.0732,0.10091 -0.0407,0 -0.0732,0.04339 -0.0732,0.09763 0,0.0537 0.022,0.09763 0.0488,0.09763 0.0268,0 0.0488,-0.03294 0.0488,-0.07322 0,-0.04027 0.0312,-0.07322 0.0692,-0.07322 0.0381,0 0.10129,-0.01232 0.14047,-0.02733 0.0512,-0.01965 0.0781,0.01808 0.0958,0.134236 0.0135,0.08886 0.0167,0.17027 0.007,0.180905 -0.01,0.01063 -0.16798,0.04513 -0.35176,0.07665 l -0.33414,0.05731 z m -14.539467,0.09385 c -0.185102,-0.07458 -0.218686,-0.204386 -0.140068,-0.541389 0.03895,-0.166987 0.09942,-0.321749 0.13436,-0.343913 0.155467,-0.09861 0.542008,-0.0057 0.599491,0.144104 0.04181,0.10895 -0.06942,0.604862 -0.158102,0.704929 -0.08088,0.09126 -0.261815,0.106319 -0.435681,0.03627 z m 0.266566,-0.451859 c 0.0265,-0.127903 0.03033,-0.24358 0.0085,-0.257064 -0.06227,-0.03848 -0.09725,0.05158 -0.128086,0.329804 -0.03537,0.319039 0.04903,0.267691 0.11957,-0.07274 z m 15.271121,0.391184 c -0.044,-0.164218 -0.0413,-0.169825 0.0998,-0.205237 0.0935,-0.02347 0.14286,-0.01082 0.17385,0.04455 0.0238,0.04252 0.0649,0.06392 0.0914,0.04754 0.0838,-0.05177 -0.0571,-0.167526 -0.20383,-0.167526 -0.14401,0 -0.28967,-0.148929 -0.28967,-0.296167 0,-0.123916 0.16978,-0.246907 0.37451,-0.271314 0.21289,-0.02538 0.2813,0.0088 0.32998,0.164779 0.0296,0.09472 0.0167,0.10983 -0.0939,0.10983 -0.073,0 -0.11522,0.021 -0.098,0.04881 0.0166,0.02684 0.072,0.04881 0.1232,0.04881 0.10857,0 0.19408,0.137157 0.19408,0.311305 0,0.169151 -0.17052,0.274444 -0.44447,0.274444 -0.19468,0 -0.23176,-0.01584 -0.25694,-0.109826 z m 0.31092,-0.570663 c 0,-0.02527 -0.022,-0.05951 -0.0488,-0.0761 -0.0268,-0.01658 -0.0488,0.0041 -0.0488,0.04593 0,0.04185 0.022,0.0761 0.0488,0.0761 0.0268,0 0.0488,-0.02066 0.0488,-0.04593 z m 0.68027,0.355057 c -0.0369,-0.0971 -0.0335,-0.140327 0.0134,-0.170098 0.088,-0.05581 0.23375,-0.05119 0.23375,0.0074 0,0.02684 0.0348,0.04881 0.0773,0.04881 0.15811,0 0.0304,-0.122602 -0.14291,-0.137231 -0.21755,-0.01834 -0.35251,-0.185315 -0.30448,-0.376667 0.037,-0.147264 0.21948,-0.229093 0.46498,-0.208467 0.13753,0.01157 0.17684,0.03745 0.18922,0.124635 0.0189,0.133371 -0.11188,0.198 -0.23948,0.118312 -0.0489,-0.03055 -0.1003,-0.03706 -0.11424,-0.01452 -0.0401,0.0648 0.0255,0.103432 0.17539,0.103432 0.24096,0 0.41679,0.28165 0.2952,0.472868 -0.0508,0.07995 -0.28044,0.161694 -0.45416,0.161694 -0.1116,0 -0.15573,-0.02961 -0.19396,-0.130186 z m -17.557126,0.04692 c -0.110528,-0.0213 -0.154271,-0.176383 -0.06526,-0.231396 0.04128,-0.02549 0.09148,-0.244571 0.124053,-0.541288 0.0075,-0.06792 0.02486,-0.134806 0.03869,-0.148626 0.02435,-0.02437 0.608397,0.09532 0.644683,0.132099 0.0099,0.01003 0.0062,0.07985 -0.0083,0.155132 -0.02186,0.113798 -0.04788,0.134375 -0.15433,0.122033 -0.07639,-0.0089 -0.1225,-0.04131 -0.114309,-0.08044 0.0075,-0.03609 -0.01304,-0.05667 -0.04576,-0.04576 -0.102078,0.03403 -0.09864,0.122115 0.0058,0.149434 0.124886,0.03268 0.08204,0.181575 -0.05224,0.181575 -0.09437,0 -0.109983,0.03839 -0.09431,0.23186 0.0091,0.11275 -0.02992,0.12331 -0.278761,0.07538 z m -2.32042,-2.737322 c -0.200853,-0.203926 -0.230028,-0.259642 -0.230028,-0.439319 v -0.205776 h 0.292874 0.292874 v 0.146437 0.146436 h 0.31728 0.31728 V 47.562994 46.95284 h -0.380131 -0.38013 L 26.416221,46.719303 26.186198,46.48577 V 45.729018 44.97227 l 0.233535,-0.230025 0.233535,-0.230021 h 0.439469 0.439469 l 0.230024,0.233536 c 0.208622,0.211806 0.230023,0.254948 0.230023,0.463715 v 0.230182 h -0.289781 -0.289781 l -0.01529,-0.158639 c -0.0153,-0.158632 -0.01531,-0.158639 -0.320373,-0.173171 l -0.305077,-0.01452 v 0.612483 0.612483 h 0.355557 0.355556 l 0.254597,0.257797 0.254598,0.257801 v 0.732484 0.732488 l -0.233536,0.230021 -0.233535,0.230025 H 27.085719 26.64625 Z m 3.026363,0 -0.230023,-0.233536 v -1.635204 -1.635201 l 0.2578,-0.2546 0.257799,-0.254596 h 0.415037 0.415038 l 0.254597,0.2578 0.254597,0.257798 v 1.635514 1.635511 l -0.233535,0.230022 -0.233535,0.230025 h -0.463876 -0.463875 z m 0.990285,-1.889804 V 45.097979 H 30.14 29.847126 v 1.537585 1.537589 H 30.14 30.432874 Z m 1.854858,1.830465 v -0.292883 h 0.14644 0.14644 v -1.537589 -1.537585 h -0.14644 -0.14644 V 44.8051 44.512224 h 0.61016 0.61015 v 0.292876 0.292872 h -0.14643 -0.14644 v 1.537585 1.537589 h 0.14644 0.14643 v 0.292876 0.292872 h -0.61015 -0.61016 z m 2.67064,0.05934 -0.23002,-0.233536 v -1.635204 -1.635201 l 0.2578,-0.2546 0.2578,-0.254596 h 0.41504 0.41503 l 0.2546,0.2578 0.2546,0.257798 v 0.352354 0.352354 h -0.31728 -0.31728 V 45.415259 45.09798 h -0.29287 -0.29288 v 1.537585 1.537589 h 0.29288 0.29287 v -0.610152 -0.610154 h -0.14644 -0.14643 v -0.317283 -0.317279 h 0.46371 0.46372 v 0.990285 0.990284 l -0.23354,0.230022 -0.23353,0.230025 h -0.46388 -0.46387 z m 2.84516,-0.05935 v -0.292876 h 0.14643 0.14644 v -1.537589 -1.537585 h -0.14644 -0.14643 V 44.8051 44.512224 h 0.45772 0.45773 l 0.42509,1.134886 c 0.2338,0.624189 0.43419,1.144039 0.4453,1.155224 0.0111,0.01119 0.0202,-0.36772 0.0202,-0.842014 v -0.862348 h -0.14643 -0.14644 V 44.8051 44.512224 h 0.61016 0.61015 v 0.292876 0.292872 h -0.14644 -0.14643 v 1.830461 1.830461 h -0.30913 -0.30912 l -0.44499,-1.1837 -0.445,-1.183696 -0.003,0.890824 -0.003,0.890824 h 0.14644 0.14643 v 0.292876 0.292872 h -0.61015 -0.61015 z m 3.95379,0 v -0.292876 h 0.17154 0.17154 l -0.0129,-1.525382 -0.0129,-1.525385 -0.15864,-0.01531 -0.15864,-0.01531 v -0.28978 -0.289781 h 0.61015 0.61016 v 0.292876 0.292873 h -0.14644 -0.14644 v 1.537585 1.537588 h 0.14644 0.14644 v 0.292876 0.292873 h -0.61016 -0.61015 z m 2.48943,0 v -0.292876 h 0.14644 0.14644 v -1.537589 -1.537585 h -0.14644 -0.14644 V 44.8051 44.512224 h 1.04947 1.04946 v 0.463718 0.463715 h -0.29287 -0.29288 v -0.173174 -0.173168 l -0.30507,0.01452 -0.30508,0.01453 -0.0137,0.597951 -0.0137,0.597948 h 0.46522 0.46522 v 0.317279 0.317283 h -0.46372 -0.46372 v 0.610155 0.610151 h 0.31728 0.31728 v -0.146436 -0.146437 h 0.29288 0.29287 v 0.439313 0.439308 h -1.04946 -1.04947 z m 3.59807,0.05934 c -0.20085,-0.203919 -0.23002,-0.259635 -0.23002,-0.439312 v -0.205776 h 0.29287 0.29288 v 0.146437 0.146436 h 0.31728 0.31728 v -0.610152 -0.610154 h -0.38013 -0.38013 l -0.23003,-0.233537 -0.23002,-0.233533 v -0.756752 -0.756748 l 0.23354,-0.230025 0.23353,-0.230021 h 0.43947 0.43947 l 0.23002,0.233536 c 0.20862,0.211806 0.23003,0.254948 0.23003,0.463715 v 0.230182 h -0.28979 -0.28978 l -0.0153,-0.158639 c -0.0153,-0.158632 -0.0153,-0.158639 -0.32037,-0.173171 l -0.30508,-0.01452 v 0.612483 0.612483 h 0.35556 0.35555 l 0.2546,0.257797 0.2546,0.257801 v 0.732484 0.732488 l -0.23354,0.230021 -0.23353,0.230025 h -0.43947 -0.43947 z M 18.15455,42.979774 c -0.850806,-0.2067 -1.427961,-0.856987 -1.66808,-1.879442 -0.07933,-0.337804 -0.08706,-0.677244 -0.08624,-3.787919 8.99e-4,-3.396076 0.0016,-3.419237 0.110945,-3.807358 0.245123,-0.869805 0.570328,-1.325906 1.148263,-1.610442 0.856387,-0.421629 2.083868,-0.303638 2.72839,0.262259 0.597876,0.524941 0.843621,1.50422 0.809911,3.227457 l -0.0148,0.756591 -0.81206,0.01336 -0.81206,0.01336 -0.02418,-1.184853 c -0.02474,-1.212165 -0.0568,-1.440457 -0.233932,-1.665645 -0.214052,-0.272123 -0.706932,-0.261567 -0.944038,0.02021 -0.248181,0.294946 -0.248908,0.306707 -0.248908,4.023877 0,3.816395 -0.0038,3.764501 0.298321,4.06663 0.159449,0.159448 0.180914,0.166433 0.444287,0.144595 0.238742,-0.0198 0.294916,-0.04472 0.409077,-0.181467 0.216122,-0.258879 0.248299,-0.472332 0.2745,-1.821005 l 0.02442,-1.256916 h 0.829743 0.829743 l -0.02415,1.281326 c -0.02694,1.429241 -0.07257,1.734433 -0.344621,2.30498 -0.36915,0.774181 -1.061514,1.155681 -2.076811,1.144338 -0.204399,-0.0022 -0.482372,-0.03107 -0.617718,-0.06394 z m 12.462471,-0.0078 c -0.86412,-0.209471 -1.391848,-0.808425 -1.631921,-1.852184 -0.08271,-0.359579 -0.08982,-0.664924 -0.08982,-3.856171 0,-3.825326 -0.0084,-3.708744 0.316557,-4.405729 0.415057,-0.8903 1.396728,-1.350444 2.551434,-1.195948 0.861631,0.115284 1.309301,0.4151 1.647021,1.103064 0.36618,0.745919 0.36625,0.74684 0.36598,4.547422 -2.4e-4,3.287909 -0.003,3.378647 -0.10631,3.813389 -0.25669,1.077625 -0.7553,1.64046 -1.63755,1.84847 -0.377799,0.08907 -1.042891,0.08798 -1.415392,-0.0022 z m 1.032806,-1.473963 c 0.422595,-0.215333 0.453475,-0.536355 0.433185,-4.502862 -0.0153,-2.998689 -0.0207,-3.160967 -0.113142,-3.412869 -0.124538,-0.339428 -0.291728,-0.467709 -0.609567,-0.467709 -0.300142,0 -0.471656,0.119428 -0.63456,0.441847 l -0.122031,0.241524 -0.01461,3.343644 c -0.01482,3.391692 0.0013,3.791415 0.166205,4.110213 0.156793,0.303208 0.563157,0.415056 0.894517,0.246212 z m 5.128645,1.483366 c -0.8194,-0.178004 -1.30087,-0.733801 -1.54298,-1.78118 -0.0483,-0.208998 -0.0845,-0.693594 -0.10181,-1.36173 l -0.0268,-1.037259 h 0.81139 0.81139 v 0.896364 c 0,1.534174 0.1441,1.885937 0.77257,1.885937 0.19095,0 0.2774,-0.02729 0.39192,-0.123628 0.22533,-0.189601 0.27579,-0.401325 0.27301,-1.145491 -0.002,-0.556678 -0.0197,-0.707771 -0.11348,-0.973346 -0.17366,-0.491749 -0.46913,-0.89696 -1.28025,-1.755804 -0.86753,-0.918562 -1.08608,-1.196337 -1.33103,-1.691714 -0.25109,-0.507808 -0.32213,-0.862471 -0.32198,-1.607458 2e-4,-1.051635 0.1945,-1.681229 0.65248,-2.114376 0.44712,-0.422867 1.26514,-0.62037 2.10438,-0.508081 0.75015,0.100371 1.18419,0.389488 1.44004,0.959211 0.2447,0.544909 0.30115,0.862753 0.32792,1.846292 l 0.0249,0.91523 h -0.78143 -0.78143 l -0.0208,-0.866421 c -0.0227,-0.946753 -0.0657,-1.131352 -0.30803,-1.321938 -0.0919,-0.07226 -0.20288,-0.10582 -0.35003,-0.10582 -0.51156,0 -0.72238,0.314587 -0.71963,1.07387 0.003,0.730339 0.0579,0.823245 1.2841,2.159696 1.05277,1.147404 1.40825,1.684605 1.67332,2.528697 0.10288,0.327625 0.11403,0.453215 0.11245,1.266712 -10e-4,0.694407 -0.0216,0.981963 -0.0875,1.244713 -0.23516,0.937256 -0.68354,1.415952 -1.50841,1.610434 -0.36236,0.08543 -1.02818,0.08879 -1.40429,0.0071 z m 5.68143,-0.0097 c -1.15753,-0.286965 -1.62982,-1.32211 -1.62997,-3.572541 l -4e-5,-0.597952 h 0.79871 0.79873 l 0.026,0.964044 c 0.0294,1.089244 0.0804,1.39189 0.27332,1.623001 0.11589,0.138822 0.17219,0.164382 0.40447,0.183645 0.32426,0.02688 0.54115,-0.06711 0.65274,-0.2829 0.10221,-0.197657 0.16685,-0.955423 0.11837,-1.387709 -0.0894,-0.797236 -0.36096,-1.244357 -1.43675,-2.365663 -0.96456,-1.005374 -1.29934,-1.494877 -1.52137,-2.224497 -0.12345,-0.405659 -0.12354,-1.6156 -1.6e-4,-2.074524 0.1189,-0.442254 0.28398,-0.783865 0.48782,-1.009495 0.55781,-0.617432 2.05848,-0.79039 2.94778,-0.339743 0.69846,0.353937 1.03708,1.315346 1.03827,2.94784 l 3.7e-4,0.549138 h -0.78099 -0.781 v -0.557808 c 0,-0.642333 -0.0744,-1.256964 -0.17587,-1.453225 -0.11614,-0.224582 -0.27569,-0.298266 -0.5895,-0.272242 -0.23214,0.01924 -0.29762,0.04699 -0.41131,0.174238 -0.0744,0.08324 -0.15843,0.234884 -0.18678,0.336991 -0.0656,0.236411 -0.0666,0.863539 -10e-4,1.097251 0.0816,0.29364 0.39018,0.701601 1.17491,1.553116 0.89555,0.97177 1.13892,1.287047 1.43297,1.85638 0.35436,0.686104 0.43389,1.048438 0.43365,1.975688 -3.7e-4,1.662153 -0.4312,2.534148 -1.40051,2.835034 -0.36087,0.11202 -1.295,0.135442 -1.67219,0.04193 z M 22.574087,37.33351 v -5.567916 l 1.74504,0.0167 c 1.667425,0.01591 1.757051,0.02149 2.01509,0.124874 0.507053,0.203167 0.851649,0.694366 0.984024,1.402664 0.08717,0.466395 0.08571,2.195815 -0.0022,2.591529 -0.100778,0.45372 -0.282211,0.748741 -0.581519,0.945578 l -0.257067,0.169061 0.135036,0.0686 c 0.360675,0.183226 0.551527,0.480358 0.66522,1.035673 0.09868,0.481968 0.13288,1.105516 0.170561,3.109407 l 0.03144,1.671866 -0.842012,-4.5e-5 c -0.463107,-3e-5 -0.845679,-0.0055 -0.85016,-0.01224 -0.0045,-0.0067 -0.02096,-1.044582 -0.03661,-2.30638 -0.02688,-2.166329 -0.0339,-2.304886 -0.126086,-2.486281 -0.164158,-0.323017 -0.298745,-0.387489 -0.855557,-0.409856 l -0.486782,-0.01954 v 2.617137 2.617134 H 23.42829 22.574074 Z m 2.822841,-1.104565 c 0.251466,-0.185281 0.31672,-0.509594 0.317264,-1.5768 5.61e-4,-1.088443 -0.03775,-1.271212 -0.304007,-1.45038 -0.144886,-0.0975 -0.226668,-0.111616 -0.646763,-0.111616 h -0.480904 v 1.602671 c 0,0.881469 0.01647,1.619729 0.03661,1.640576 0.02013,0.02085 0.241559,0.02748 0.492053,0.01471 0.350607,-0.01786 0.485439,-0.04527 0.585748,-0.119181 z m 21.388064,1.107878 v -5.564607 h 1.92809 1.92808 v 0.732185 0.732184 h -1.07387 -1.07387 v 1.488776 1.488779 h 1.00065 1.00066 v 0.732184 0.732185 h -1.00066 -1.00065 v 2.611458 2.611459 h -0.85421 -0.85422 z m 5.12529,0 v -5.564607 h 0.85422 0.85421 v 5.564607 5.564603 h -0.85421 -0.85422 z m 4.00261,0.732185 v -4.832423 h -0.65897 -0.65896 v -0.732184 -0.732185 h 2.12333 2.12334 v 0.732185 0.732184 h -0.61015 -0.61016 v 4.832423 4.832418 h -0.85421 -0.85422 z m -37.476385,-8.69826 0.01294,-1.425225 8.073565,-2.212098 c 4.44046,-1.216655 8.08258,-2.20308 8.09361,-2.192057 0.011,0.01103 0.005,0.208349 -0.0139,0.438503 -0.0336,0.414449 -0.0354,0.418927 -0.18601,0.467115 -0.0836,0.02676 -3.49082,0.961982 -7.571529,2.078275 -4.080709,1.116292 -7.457911,2.041122 -7.504893,2.055177 -0.07805,0.02336 -0.08542,0.119978 -0.08542,1.120546 v 1.094987 h -0.415631 -0.415642 z m 2.049674,0.611867 0.01338,-0.813357 7.004566,-1.919433 c 3.852512,-1.055689 7.022575,-1.919749 7.044575,-1.920133 0.022,-3.69e-4 0.033,0.04647 0.0244,0.104121 -0.0143,0.09591 -0.56535,0.255436 -6.483226,1.876726 -3.557197,0.974548 -6.684444,1.831356 -6.949438,1.904018 l -0.481807,0.132115 0.03494,0.724649 0.03494,0.72465 h -0.127863 -0.127862 z m 35.231461,0.01325 v -0.800113 l -0.13422,-0.03369 c -0.78071,-0.195944 -14.4804,-3.839506 -14.5136,-3.86003 -0.038,-0.02347 -0.0678,-0.220822 -0.0325,-0.215132 0.007,0.0011 3.35097,0.887539 7.43168,1.969905 l 7.41947,1.967937 0.033,0.214447 c 0.0182,0.117944 0.0346,0.516472 0.0366,0.885615 l 0.004,0.671169 h -0.12203 -0.12203 z m 1.44738,0.279987 c -0.0175,-0.286066 -0.0318,-0.811759 -0.0318,-1.168206 0,-0.574453 -0.01,-0.651131 -0.0854,-0.674929 -0.047,-0.01476 -3.65068,-0.971282 -8.00821,-2.12559 -4.35753,-1.154309 -7.9434,-2.111487 -7.96861,-2.127065 -0.0252,-0.01557 -0.0463,-0.131363 -0.047,-0.257299 -3.8e-4,-0.125939 -0.0214,-0.316223 -0.0461,-0.422856 -0.0247,-0.106634 -0.0405,-0.198277 -0.0352,-0.203653 0.005,-0.0054 3.84263,1.005715 8.52725,2.246864 l 8.51748,2.256636 0.0129,1.49811 0.0129,1.498112 h -0.40819 -0.40819 z m -20.55998,0.111951 c -1.35631,-0.438575 -2.27345,-1.917601 -2.012,-3.244656 0.0429,-0.217507 0.13754,-0.522473 0.21041,-0.677702 l 0.13251,-0.282233 -0.01,-1.171495 c -0.006,-0.713201 0.0116,-1.264772 0.0443,-1.409929 0.14325,-0.63461 0.58034,-1.185378 1.15777,-1.458874 l 0.33266,-0.157561 h 1.36674 1.36674 l 0.32021,0.156707 c 0.35799,0.175195 0.79829,0.598478 0.96744,0.930055 0.22388,0.438831 0.25579,0.691443 0.24502,1.939602 -0.01,1.155858 -0.009,1.175078 0.11191,1.439963 0.0671,0.147657 0.14857,0.376299 0.18102,0.508095 0.0808,0.328126 0.0718,1.019262 -0.0177,1.359313 -0.2192,0.832806 -0.8413,1.555799 -1.68584,1.959231 l -0.31728,0.151564 -1.09827,0.01094 c -0.79859,0.008 -1.15226,-0.0065 -1.29611,-0.05303 z m -1.35743,-3.691937 c 0.19028,-0.384935 0.30025,-0.534213 0.64815,-0.879828 0.28089,-0.279037 0.53162,-0.475707 0.76068,-0.59666 0.47019,-0.248284 0.27828,-0.231154 -0.22621,0.02019 -0.90731,0.452032 -1.5654,1.431152 -1.55156,2.30844 l 0.004,0.246011 0.0679,-0.31728 c 0.0374,-0.174505 0.17108,-0.525896 0.29712,-0.780873 z m 4.4526,-1.878151 c 0.1311,-0.192513 0.24702,-0.491816 0.24625,-0.635808 -3.7e-4,-0.05369 -0.0446,0.0122 -0.0985,0.146437 -0.0539,0.134233 -0.16252,0.325144 -0.2414,0.424245 -0.15937,0.200217 -0.17156,0.234875 -0.0824,0.234388 0.0335,-1.85e-4 0.11278,-0.07635 0.17605,-0.169262 z m -2.55563,-0.146839 c 0.44861,-0.09502 0.88018,-0.09312 1.3984,0.0062 0.40901,0.07837 0.42794,0.07789 0.60755,-0.01531 0.29677,-0.154012 0.47149,-0.407913 0.49763,-0.723168 0.0279,-0.336332 -0.0449,-0.518078 -0.29223,-0.729796 -0.27099,-0.231958 -0.49579,-0.271584 -1.54076,-0.271584 -1.10189,0 -1.32688,0.04797 -1.58975,0.338931 -0.22977,0.254329 -0.30368,0.502511 -0.23054,0.774119 0.0903,0.335295 0.46099,0.683952 0.73479,0.691095 0.0403,0.0011 0.22699,-0.03065 0.41491,-0.07046 z m -1.64265,-1.600875 c 0.1863,-0.27078 0.47973,-0.515903 0.82502,-0.689207 0.32652,-0.163882 0.32998,-0.203419 0.007,-0.07597 -0.62781,0.247459 -1.06192,0.720557 -1.14014,1.242525 l -0.0293,0.195249 0.0917,-0.224167 c 0.0504,-0.123291 0.16115,-0.325084 0.24602,-0.448426 z m -4.249535,6.405204 c -0.104242,-0.06077 -0.184339,-0.340024 -0.184696,-0.64393 -2.4e-4,-0.199407 0.01339,-0.231858 0.09735,-0.231858 0.08657,0 0.09762,0.03254 0.09762,0.287466 0,0.359736 0.114114,0.540388 0.283942,0.4495 0.09054,-0.04846 0.106557,-0.09915 0.106557,-0.337324 0,-0.292311 -0.06803,-0.442462 -0.275431,-0.607893 -0.436068,-0.347831 -0.403638,-1.111106 0.04712,-1.108934 0.271216,0.0013 0.374753,0.148558 0.374753,0.53298 0,0.214729 -0.01285,0.247271 -0.09763,0.247271 -0.08552,0 -0.09762,-0.03254 -0.09762,-0.262493 0,-0.179951 -0.02431,-0.282666 -0.07731,-0.326651 -0.130428,-0.108247 -0.237841,0.0051 -0.25503,0.269126 -0.01421,0.218317 -0.0016,0.245571 0.224563,0.484689 0.131793,0.139351 0.26742,0.337592 0.301395,0.440536 0.08949,0.271173 0.04151,0.660013 -0.09511,0.770638 -0.11958,0.09683 -0.319555,0.113199 -0.450475,0.03688 z m 11.972015,-0.04326 c -0.136,-0.136008 -0.1583,-0.325314 -0.14053,-1.193173 0.0152,-0.742108 0.0201,-0.774368 0.13101,-0.864089 0.14717,-0.11903 0.35456,-0.11903 0.50172,0 0.11093,0.08972 0.11583,0.121981 0.13102,0.864089 0.009,0.423989 0.002,0.844549 -0.0149,0.934579 -0.0402,0.214258 -0.18473,0.353496 -0.36695,0.353496 -0.0805,0 -0.18914,-0.04271 -0.24134,-0.0949 z m 0.35989,-0.128241 c 0.0635,-0.06353 0.0767,-0.214982 0.0767,-0.88183 0,-0.834271 -0.0314,-0.993958 -0.19525,-0.993958 -0.16388,0 -0.19524,0.159687 -0.19524,0.993958 0,0.666848 0.0132,0.8183 0.0767,0.88183 0.0422,0.04219 0.0955,0.07671 0.11854,0.07671 0.023,0 0.0764,-0.03452 0.11855,-0.07671 z m -13.29787,-0.899536 v -1.07387 h 0.268467 c 0.301608,0 0.368317,0.08347 0.08542,0.106881 l -0.183046,0.01515 -0.01411,0.427107 -0.0141,0.427107 h 0.19715 c 0.142702,0 0.197149,0.02022 0.197149,0.07322 0,0.05288 -0.05424,0.07322 -0.195249,0.07322 h -0.195249 v 0.439311 0.439311 h 0.195249 c 0.141013,0 0.195249,0.02034 0.195249,0.07322 0,0.05621 -0.06237,0.07322 -0.268467,0.07322 h -0.268468 z m 1.90368,0.04881 c 0,-0.992517 -0.003,-1.025059 -0.0976,-1.025059 -0.0537,0 -0.0976,-0.02197 -0.0976,-0.04881 0,-0.02712 0.13017,-0.04881 0.29287,-0.04881 0.28548,0 0.39121,0.06052 0.19525,0.111768 -0.0936,0.02448 -0.0976,0.06658 -0.0976,1.03075 0,0.972681 -0.003,1.005223 -0.0976,1.005223 -0.0945,0 -0.0976,-0.03254 -0.0976,-1.025059 z m 10.05534,0.90029 c 0,-0.06862 0.10357,-0.359668 0.23016,-0.646764 0.19805,-0.44917 0.2304,-0.56762 0.23186,-0.849035 0.002,-0.375059 -0.0683,-0.502483 -0.20289,-0.36792 -0.052,0.05201 -0.0896,0.189166 -0.10314,0.376204 -0.0184,0.254518 -0.0345,0.294351 -0.11873,0.294351 -0.0912,0 -0.0952,-0.02102 -0.0623,-0.329482 0.0422,-0.395701 0.0863,-0.489323 0.24973,-0.530351 0.47428,-0.119035 0.56146,0.589433 0.17545,1.425652 -0.25995,0.563121 -0.26002,0.596 -10e-4,0.615074 0.11202,0.0082 0.21269,0.04247 0.22373,0.07602 0.0147,0.04467 -0.066,0.06102 -0.30129,0.06102 -0.31211,0 -0.32135,-0.0036 -0.32135,-0.124769 z m 2.0013,-0.801445 v -0.926212 l -0.14644,0.02929 c -0.0933,0.01866 -0.14643,0.0094 -0.14643,-0.02563 0,-0.0302 0.0288,-0.05492 0.0641,-0.05492 0.0353,0 0.12648,-0.06511 0.20272,-0.144701 0.0763,-0.07959 0.15724,-0.133203 0.17998,-0.119149 0.0227,0.01406 0.0413,0.507495 0.0413,1.09654 0,1.038449 -0.003,1.07099 -0.0976,1.07099 -0.0942,0 -0.0976,-0.03254 -0.0976,-0.926214 z m 0.6603,0.645543 c 0.0467,-0.400228 0.20751,-1.136979 0.31866,-1.460043 0.0522,-0.15173 0.0949,-0.283418 0.0949,-0.292639 0,-0.0092 -0.14461,-0.01677 -0.32135,-0.01677 -0.23538,0 -0.3159,-0.01633 -0.30101,-0.06101 0.014,-0.04196 0.14102,-0.06101 0.40677,-0.06101 0.31475,0 0.38485,0.01358 0.37789,0.07322 -0.005,0.04027 -0.0756,0.331945 -0.15768,0.648163 -0.082,0.316221 -0.1744,0.772005 -0.20529,1.012857 -0.0489,0.381653 -0.0683,0.437909 -0.15091,0.437909 -0.0866,0 -0.0919,-0.02413 -0.062,-0.280671 z m -11.61185,0.19799 c -0.0583,-0.05834 -0.0315,-0.16138 0.042,-0.16138 0.0403,0 0.0732,0.03165 0.0732,0.07034 0,0.08155 -0.0697,0.136596 -0.11522,0.09104 z m -0.22647,-1.332875 v -0.732185 h 0.16736 c 0.092,0 0.20057,0.03321 0.24116,0.0738 0.10194,0.101944 0.14677,0.455579 0.11351,0.895398 -0.0314,0.414821 -0.0899,0.49517 -0.36051,0.49517 h -0.16152 z m 0.33193,0.575984 c 0.0382,-0.03819 0.0586,-0.238638 0.0586,-0.575984 0,-0.513851 -0.0344,-0.634562 -0.18061,-0.634562 -0.0488,0 -0.0635,0.146437 -0.0635,0.634562 0,0.645973 0.0281,0.733337 0.18549,0.575984 z"
       id="path1"
       inkscape:export-filename="logocrosfit.png"
       inkscape:export-xdpi="96"
       inkscape:export-ydpi="96" /></g></svg>
